<svg id="Capa_1" enable-background="new 0 0 512.025 512.025" height="512" viewBox="0 0 512.025 512.025" width="512" xmlns="http://www.w3.org/2000/svg"><g><g><path clip-rule="evenodd" d="m342.437 243.409c8.135-52.1 54.933-64.402 54.876-128.69-.085-66.641-51.673-105.418-101.872-104.709-50.199-.709-101.787 38.068-101.872 104.709-.085 64.288 46.741 76.59 54.876 128.69.822-.113 1.644-.142 2.494-.142h89.003c.851 0 1.673.029 2.495.142z" fill="#ffda8f" fill-rule="evenodd"/></g><g><path clip-rule="evenodd" d="m250.939 288.195h89.003.709c12.047-.368 21.769-10.346 21.769-22.45 0-11.537-8.787-21.089-19.983-22.336-.822-.113-1.644-.142-2.494-.142h-89.003c-.85 0-1.672.028-2.494.142-11.196 1.247-19.983 10.8-19.983 22.336 0 12.104 9.722 22.081 21.769 22.45z" fill="#f3eff0" fill-rule="evenodd"/></g><g><path clip-rule="evenodd" d="m317.578 334.342c12.699 0 23.073-10.375 23.073-23.073v-23.073c-.227 0-.482 0-.709 0h-89.003c-.255 0-.482 0-.709 0v23.073c0 12.699 10.374 23.073 23.045 23.073z" fill="#cdc0c4" fill-rule="evenodd"/></g><g><path clip-rule="evenodd" d="m312.022 404.016c-4.308-7.823-12.614-13.124-22.081-13.124h-50.738c-7.483 0-8.532-1.247-13.209-5.641-37.415-35.234-67.943-33.505-105.358-18.737-8.05 3.175-9.099 3.118-16.468 3.458h-19.416v94.788h29.082c3.94 0 3.571.198 9.382 1.757l96.571 25.823c33.957 9.212 47.563 17.659 79.82-3.855l119.021-84.754c10.885-7.767 14.938-22.081 7.908-33.476-7.03-11.367-21.571-14.003-33.447-7.88z" fill="#ffdcd5" fill-rule="evenodd"/></g><g><path clip-rule="evenodd" d="m84.752 464.761v-94.788-1.559c0-8.504-6.945-15.448-15.42-15.448h-37.33c-8.475 0-15.42 6.945-15.42 15.448v97.906c0 8.475 6.945 15.42 15.42 15.42h37.33c8.475 0 15.42-6.945 15.42-15.42z" fill="#ff9eb1" fill-rule="evenodd"/></g><g><path d="m388.521 353.481-73.63 37.82c-6.376-6.424-15.205-10.409-24.949-10.409h-50.738c-2.257 0-3.083-.139-3.331-.198-.46-.312-1.607-1.391-2.537-2.267l-.485-.457c-41.298-38.89-76.195-36.423-115.883-20.759-6.211 2.45-6.329 2.455-12.485 2.736l-11.177.014c-3.489-9.889-12.915-16.997-23.972-16.997h-37.332c-14.016 0-25.419 11.416-25.419 25.448v97.907c0 14.017 11.403 25.42 25.419 25.42h37.331c11.058 0 20.484-7.1 23.973-16.979h20.529c2.324.201 4.59.674 6.799 1.418l96.537 25.814c4.227 1.146 8.108 2.274 11.862 3.365 12.467 3.623 22.947 6.668 33.874 6.667 12.345 0 25.26-3.887 42.25-15.22.085-.057.169-.114.252-.173l119.028-84.76c15.646-11.163 20.207-31.312 10.605-46.876-9.491-15.345-29.497-20.292-46.521-11.514zm-313.769 112.839c0 2.938-2.482 5.42-5.419 5.42h-37.331c-2.938 0-5.419-2.482-5.419-5.42v-97.907c0-2.953 2.482-5.448 5.419-5.448h37.331c2.938 0 5.419 2.495 5.419 5.448zm338.075-70.734-118.895 84.665c-24.2 16.107-34.499 13.113-59.321 5.901-3.838-1.115-7.807-2.268-12.241-3.471l-96.563-25.821c-3.885-1.205-7.877-1.905-11.974-2.099h-19.081v-74.789l10.641-.045c7.611-.347 9.971-.583 18.915-4.111 34.4-13.578 60.946-15.195 94.84 16.723l.479.45c5.836 5.495 9.452 7.902 19.577 7.902h50.738c8.365 0 15.17 6.806 15.17 15.171 0 8.35-6.805 15.143-15.17 15.143h-82.257c-5.523 0-10 4.477-10 10s4.477 10 10 10h82.257c19.393 0 35.17-15.765 35.17-35.143 0-2.45-.254-4.842-.733-7.152l73.292-37.647c6.681-3.443 15.82-3.09 20.354 4.243 3.998 6.481 1.76 15.116-5.198 20.08z"/><path d="m236.765 236.529c-10.825 5.273-18.304 16.387-18.304 29.216 0 14.145 9.108 26.197 21.769 30.629v14.894c0 18.237 14.824 33.074 33.044 33.074h44.303c18.236 0 33.073-14.837 33.073-33.074v-14.894c12.661-4.432 21.769-16.485 21.769-30.629 0-12.83-7.479-23.944-18.305-29.217 4.379-16.268 13.256-28.381 22.592-41.087 14.362-19.546 30.64-41.7 30.605-80.723 0-3.484-.144-7.06-.428-10.629-.438-5.506-5.245-9.601-10.762-9.176-5.505.438-9.613 5.256-9.175 10.762.242 3.043.365 6.085.365 9.051.029 32.464-12.965 50.149-26.723 68.872-10.439 14.207-21.182 28.852-26.301 49.667h-77.698c-5.119-20.813-15.865-35.457-26.306-49.663-13.762-18.723-26.76-36.408-26.717-68.873.044-34.617 14.875-56.479 27.31-68.723 17.122-16.86 40.575-26.336 64.421-26 .096.001.191.001.287 0 19.429-.295 38.915 6.038 54.823 17.799 4.439 3.283 10.703 2.344 13.986-2.096 3.283-4.441 2.345-10.703-2.096-13.986-19.369-14.318-43.107-22.021-66.859-21.714-29.089-.355-57.72 11.196-78.593 31.75-21.728 21.396-33.235 50.079-33.277 82.947-.052 39.039 16.234 61.196 30.602 80.744 9.337 12.703 18.216 24.814 22.595 41.079zm93.886 74.74c0 7.209-5.864 13.074-13.073 13.074h-44.303c-7.193 0-13.044-5.865-13.044-13.074v-13.073h70.42zm-79.712-58.002h89.003c6.88 0 12.478 5.598 12.478 12.478 0 6.865-5.597 12.45-12.478 12.45h-89.003c-6.88 0-12.478-5.585-12.478-12.45 0-6.88 5.598-12.478 12.478-12.478z"/><path d="m305.44 73.051c0-5.523-4.477-10-10-10s-10 4.477-10 10v62.021c0 5.523 4.477 10 10 10s10-4.477 10-10z"/><path d="m295.44 170.311c-5.523 0-10 4.477-10 10v.057c0 5.523 4.477 9.972 10 9.972s10-4.505 10-10.028-4.477-10.001-10-10.001z"/><path d="m495.443 114.64h-40.618c-5.523 0-10 4.477-10 10s4.477 10 10 10h40.618c5.523 0 10-4.477 10-10s-4.477-10-10-10z"/><path d="m438.025 50.227c1.916 0 3.853-.55 5.563-1.698l33.702-22.62c4.586-3.078 5.808-9.29 2.73-13.876-3.077-4.585-9.289-5.808-13.876-2.73l-33.702 22.62c-4.586 3.078-5.808 9.291-2.73 13.876 1.931 2.875 5.092 4.428 8.313 4.428z"/><path d="m477.291 223.371-33.702-22.62c-4.586-3.078-10.799-1.855-13.876 2.73-3.078 4.585-1.855 10.798 2.73 13.876l33.702 22.62c1.71 1.148 3.647 1.698 5.563 1.698 3.221 0 6.383-1.553 8.313-4.428 3.078-4.586 1.856-10.799-2.73-13.876z"/><path d="m95.438 134.64h40.59c5.523 0 10-4.477 10-10s-4.477-10-10-10h-40.59c-5.523 0-10 4.477-10 10s4.477 10 10 10z"/><path d="m113.59 25.91 33.702 22.62c1.71 1.148 3.647 1.698 5.563 1.698 3.221 0 6.383-1.553 8.313-4.428 3.078-4.585 1.855-10.798-2.73-13.876l-33.702-22.62c-4.586-3.078-10.798-1.855-13.876 2.73s-1.856 10.798 2.73 13.876z"/><path d="m147.293 200.751-33.702 22.62c-4.586 3.078-5.808 9.291-2.73 13.876 1.93 2.875 5.091 4.428 8.313 4.428 1.916 0 3.853-.55 5.563-1.698l33.702-22.62c4.586-3.078 5.808-9.291 2.73-13.876s-9.291-5.808-13.876-2.73z"/><path d="m377.458 69.237c1.95 1.949 4.499 2.922 7.05 2.922 2.56 0 5.122-.98 7.078-2.936 3.905-3.905 3.891-10.251-.014-14.157-3.905-3.905-10.237-3.905-14.143 0-3.905 3.905-3.905 10.237 0 14.143z"/></g></g></svg>