<svg id="visual" viewBox="0 0 960 540" width="960" height="540" xmlns="http://www.w3.org/2000/svg" xmlns:xlink="http://www.w3.org/1999/xlink" version="1.1"><rect x="0" y="0" width="960" height="540" fill="#fff"></rect><path d="M0 421L22.8 412.2C45.7 403.3 91.3 385.7 137 380.3C182.7 375 228.3 382 274 393C319.7 404 365.3 419 411.2 419.8C457 420.7 503 407.3 548.8 397.8C594.7 388.3 640.3 382.7 686 387C731.7 391.3 777.3 405.7 823 409.3C868.7 413 914.3 406 937.2 402.5L960 399L960 541L937.2 541C914.3 541 868.7 541 823 541C777.3 541 731.7 541 686 541C640.3 541 594.7 541 548.8 541C503 541 457 541 411.2 541C365.3 541 319.7 541 274 541C228.3 541 182.7 541 137 541C91.3 541 45.7 541 22.8 541L0 541Z" fill="#fa7268"></path><path d="M0 423L22.8 425.3C45.7 427.7 91.3 432.3 137 438.7C182.7 445 228.3 453 274 455.2C319.7 457.3 365.3 453.7 411.2 452C457 450.3 503 450.7 548.8 446.2C594.7 441.7 640.3 432.3 686 425.5C731.7 418.7 777.3 414.3 823 419.5C868.7 424.7 914.3 439.3 937.2 446.7L960 454L960 541L937.2 541C914.3 541 868.7 541 823 541C777.3 541 731.7 541 686 541C640.3 541 594.7 541 548.8 541C503 541 457 541 411.2 541C365.3 541 319.7 541 274 541C228.3 541 182.7 541 137 541C91.3 541 45.7 541 22.8 541L0 541Z" fill="#eb5967"></path><path d="M0 438L22.8 446.7C45.7 455.3 91.3 472.7 137 477.2C182.7 481.7 228.3 473.3 274 467.5C319.7 461.7 365.3 458.3 411.2 460.7C457 463 503 471 548.8 476.5C594.7 482 640.3 485 686 480.8C731.7 476.7 777.3 465.3 823 465.7C868.7 466 914.3 478 937.2 484L960 490L960 541L937.2 541C914.3 541 868.7 541 823 541C777.3 541 731.7 541 686 541C640.3 541 594.7 541 548.8 541C503 541 457 541 411.2 541C365.3 541 319.7 541 274 541C228.3 541 182.7 541 137 541C91.3 541 45.7 541 22.8 541L0 541Z" fill="#da3f67"></path><path d="M0 511L22.8 510.5C45.7 510 91.3 509 137 505.5C182.7 502 228.3 496 274 494C319.7 492 365.3 494 411.2 495C457 496 503 496 548.8 493.3C594.7 490.7 640.3 485.3 686 481.8C731.7 478.3 777.3 476.7 823 480.8C868.7 485 914.3 495 937.2 500L960 505L960 541L937.2 541C914.3 541 868.7 541 823 541C777.3 541 731.7 541 686 541C640.3 541 594.7 541 548.8 541C503 541 457 541 411.2 541C365.3 541 319.7 541 274 541C228.3 541 182.7 541 137 541C91.3 541 45.7 541 22.8 541L0 541Z" fill="#c62368"></path></svg>